<?xml version="1.0" encoding="UTF-8" standalone="no"?>
<svg
   xmlns:dc="http://purl.org/dc/elements/1.1/"
   xmlns:cc="http://creativecommons.org/ns#"
   xmlns:rdf="http://www.w3.org/1999/02/22-rdf-syntax-ns#"
   xmlns:svg="http://www.w3.org/2000/svg"
   xmlns="http://www.w3.org/2000/svg"
   xmlns:sodipodi="http://sodipodi.sourceforge.net/DTD/sodipodi-0.dtd"
   xmlns:inkscape="http://www.inkscape.org/namespaces/inkscape"
   height="35"
   id="Layer_1"
   version="1.1"
   viewBox="0 0 42 35"
   width="42"
   xml:space="preserve"
   inkscape:version="0.48.4 r9939"
   sodipodi:docname="a.svg"><metadata
     id="metadata3051"><rdf:RDF><cc:Work
         rdf:about=""><dc:format>image/svg+xml</dc:format><dc:type
           rdf:resource="http://purl.org/dc/dcmitype/StillImage" /><dc:title></dc:title></cc:Work></rdf:RDF></metadata><defs
     id="defs3049" /><sodipodi:namedview
     pagecolor="#ffffff"
     bordercolor="#666666"
     borderopacity="1"
     objecttolerance="10"
     gridtolerance="10"
     guidetolerance="10"
     inkscape:pageopacity="0"
     inkscape:pageshadow="2"
     inkscape:window-width="1366"
     inkscape:window-height="706"
     id="namedview3047"
     showgrid="false"
     inkscape:zoom="4.1875"
     inkscape:cx="1.7325227"
     inkscape:cy="15.282169"
     inkscape:window-x="0"
     inkscape:window-y="27"
     inkscape:window-maximized="1"
     inkscape:current-layer="Layer_1" /><g
     id="g3039"
     transform="matrix(0.09299537,-0.06639701,0.07669192,0.08973716,-22.245156,11.686149)"><path
       d="M 256.5,208 H 256 v 0 c 0.2,0 0.3,0 0.5,0 z"
       id="path3041"
       inkscape:connector-curvature="0" /><path
       d="M 368.5,160 H 320 c 0,0 26,17 31.6,48 h 16.4 0.5 c 17.6,0 31.5,13.9 31.5,31.5 v 32 c 0,17.6 -13.9,32.5 -31.5,32.5 h -112 C 238.9,304 224,289.1 224,271.5 V 240 h -48 v 31.5 c 0,11.5 2.5,22.5 6.9,32.5 12.6,28.2 40.9,48 73.6,48 h 112 c 44.2,0 79.5,-36.3 79.5,-80.5 v -32 C 448,195.3 412.7,160 368.5,160 z"
       id="path3043"
       inkscape:connector-curvature="0" /><path
       d="m 329.6,208 c -12.1,-28.3 -40.1,-48 -73.1,-48 h -112 C 100.3,160 64,195.3 64,239.5 v 32 c 0,44.2 36.3,80.5 80.5,80.5 H 192 c 0,0 -25.8,-17 -32.1,-48 H 144.5 C 126.9,304 112,289.1 112,271.5 v -32 c 0,-17.6 14.9,-31.5 32.5,-31.5 h 111.5 0.5 c 17.6,0 31.5,13.9 31.5,31.5 v 32 c 0,0.2 0,0.3 0,0.5 h 48 c 0,-0.2 0,-0.3 0,-0.5 v -32 c 0,-11.2 -2.3,-21.9 -6.4,-31.5 z"
       id="path3045"
       inkscape:connector-curvature="0" /></g></svg>