<?xml version="1.0" encoding="UTF-8" standalone="no"?>
<svg
   xmlns:dc="http://purl.org/dc/elements/1.1/"
   xmlns:cc="http://creativecommons.org/ns#"
   xmlns:rdf="http://www.w3.org/1999/02/22-rdf-syntax-ns#"
   xmlns:svg="http://www.w3.org/2000/svg"
   xmlns="http://www.w3.org/2000/svg"
   xmlns:sodipodi="http://sodipodi.sourceforge.net/DTD/sodipodi-0.dtd"
   xmlns:inkscape="http://www.inkscape.org/namespaces/inkscape"
   height="35"
   version="1.1"
   width="42"
   id="svg2"
   inkscape:version="0.48.4 r9939"
   sodipodi:docname="img.svg">
  <metadata
     id="metadata22">
    <rdf:RDF>
      <cc:Work
         rdf:about="">
        <dc:format>image/svg+xml</dc:format>
        <dc:type
           rdf:resource="http://purl.org/dc/dcmitype/StillImage" />
      </cc:Work>
    </rdf:RDF>
  </metadata>
  <defs
     id="defs20" />
  <sodipodi:namedview
     pagecolor="#ffffff"
     bordercolor="#666666"
     borderopacity="1"
     objecttolerance="10"
     gridtolerance="10"
     guidetolerance="10"
     inkscape:pageopacity="0"
     inkscape:pageshadow="2"
     inkscape:window-width="1366"
     inkscape:window-height="706"
     id="namedview18"
     showgrid="false"
     inkscape:zoom="9.8333333"
     inkscape:cx="22.39683"
     inkscape:cy="19.665859"
     inkscape:window-x="0"
     inkscape:window-y="27"
     inkscape:window-maximized="1"
     inkscape:current-layer="svg2" />
  <g
     transform="matrix(1.8967643,0,0,1.8135594,-1.7103237,-1870.1322)"
     id="g4">
    <path
       d="m 23,1048.4 c 0,1.1 -0.895,2 -2,2 H 13 9 3 c -1.1046,0 -2,-0.9 -2,-2 v -14 c 0,-1.1 0.8954,-2 2,-2 h 6 4 4 4 c 1.105,0 2,0.9 2,2 v 4 10 z"
       id="path6"
       inkscape:connector-curvature="0"
       style="fill:#95a5a6" />
    <path
       d="m 1,1047.4 c 0,1.1 0.8954,2 2,2 h 8 4 6 c 1.105,0 2,-0.9 2,-2 v -14 c 0,-1.1 -0.895,-2 -2,-2 H 15 11 7 3 c -1.1046,0 -2,0.9 -2,2 v 4 10 z"
       id="path8"
       inkscape:connector-curvature="0"
       style="fill:#bdc3c7" />
    <rect
       height="14"
       transform="translate(0,1028.4)"
       width="18"
       x="3"
       y="5"
       id="rect10"
       style="fill:#f39c12" />
    <path
       d="M 16.625,8.625 6.281,19 H 21 V 13 L 16.625,8.625 z"
       transform="translate(0,1028.4)"
       id="path12"
       inkscape:connector-curvature="0"
       style="fill:#e67e22" />
    <path
       d="M 8,8 A 2,2 0 1 1 4,8 2,2 0 1 1 8,8 z"
       transform="matrix(1.75,0,0,1.75,-3,1024.4)"
       id="path14"
       inkscape:connector-curvature="0"
       style="fill:#f1c40f" />
    <path
       d="M 8.0938,11.094 3,16.188 V 19 H 16 L 8.0938,11.094 z"
       transform="translate(0,1028.4)"
       id="path16"
       inkscape:connector-curvature="0"
       style="fill:#d35400" />
  </g>
</svg>
